<control>


default_path=Woodwinds\Oboe\Stacc\


<global>




ampeg_attack=0.001


ampeg_release=2


ampeg_dynamic=1




volume=0




<group> //Begin Group 1




lorand=0.0 hirand=0.5


group_label=gr_1






<region>
sample=Oboe_Stacc_A#2_v1_rr1_Main.wav
lokey=58
hikey=59
pitch_keycenter=58
lovel=0
hivel=41
volume=17


<region>
sample=Oboe_Stacc_A#3_v1_rr1_Main.wav
lokey=68
hikey=71
pitch_keycenter=70
lovel=0
hivel=41
volume=17


<region>
sample=Oboe_Stacc_A#4_v1_rr1_Main.wav
lokey=80
hikey=83
pitch_keycenter=82
lovel=0
hivel=41
volume=17


<region>
sample=Oboe_Stacc_D3_v1_rr1_Main.wav
lokey=60
hikey=63
pitch_keycenter=62
lovel=0
hivel=41
volume=17


<region>
sample=Oboe_Stacc_D4_v1_rr1_Main.wav
lokey=72
hikey=75
pitch_keycenter=74
lovel=0
hivel=41
volume=17


<region>
sample=Oboe_Stacc_D5_v1_rr1_Main.wav
lokey=84
hikey=87
pitch_keycenter=86
lovel=0
hivel=62
volume=15


<region>
sample=Oboe_Stacc_F3_v1_rr1_Main.wav
lokey=64
hikey=67
pitch_keycenter=65
lovel=0
hivel=41
volume=17


<region>
sample=Oboe_Stacc_F4_v1_rr1_Main.wav
lokey=76
hikey=79
pitch_keycenter=77
lovel=0
hivel=41
volume=17


<region>
sample=Oboe_Stacc_F5_v1_rr1_Main.wav
lokey=88
hikey=89
pitch_keycenter=89
lovel=0
hivel=41
volume=17


<region>
sample=Oboe_Stacc_A#2_v2_rr1_Main.wav
lokey=58
hikey=59
pitch_keycenter=58
lovel=42
hivel=83
volume=10


<region>
sample=Oboe_Stacc_A#3_v2_rr1_Main.wav
lokey=68
hikey=71
pitch_keycenter=70
lovel=42
hivel=83
volume=10


<region>
sample=Oboe_Stacc_A#4_v2_rr1_Main.wav
lokey=80
hikey=83
pitch_keycenter=82
lovel=42
hivel=83
volume=10


<region>
sample=Oboe_Stacc_D3_v2_rr1_Main.wav
lokey=60
hikey=63
pitch_keycenter=62
lovel=42
hivel=83
volume=10


<region>
sample=Oboe_Stacc_D4_v2_rr1_Main.wav
lokey=72
hikey=75
pitch_keycenter=74
lovel=42
hivel=83
volume=10


<region>
sample=Oboe_Stacc_F3_v2_rr1_Main.wav
lokey=64
hikey=67
pitch_keycenter=65
lovel=42
hivel=83
volume=10


<region>
sample=Oboe_Stacc_F4_v2_rr1_Main.wav
lokey=76
hikey=79
pitch_keycenter=77
lovel=42
hivel=83
volume=10


<region>
sample=Oboe_Stacc_F5_v2_rr1_Main.wav
lokey=88
hikey=89
pitch_keycenter=89
lovel=42
hivel=83
volume=10


<region>
sample=Oboe_Stacc_A#2_v3_rr1_Main.wav
lokey=58
hikey=59
pitch_keycenter=58
lovel=84
hivel=127
volume=9


<region>
sample=Oboe_Stacc_A#3_v3_rr1_Main.wav
lokey=68
hikey=71
pitch_keycenter=70
lovel=84
hivel=127
volume=9


<region>
sample=Oboe_Stacc_A#4_v3_rr1_Main.wav
lokey=80
hikey=83
pitch_keycenter=82
lovel=84
hivel=127
volume=9


<region>
sample=Oboe_Stacc_D3_v3_rr1_Main.wav
lokey=60
hikey=63
pitch_keycenter=62
lovel=84
hivel=127
volume=9


<region>
sample=Oboe_Stacc_D4_v3_rr1_Main.wav
lokey=72
hikey=75
pitch_keycenter=74
lovel=84
hivel=127
volume=9


<region>
sample=Oboe_Stacc_D5_v3_rr1_Main.wav
lokey=84
hikey=87
pitch_keycenter=86
lovel=63
hivel=127
volume=9


<region>
sample=Oboe_Stacc_F3_v3_rr1_Main.wav
lokey=64
hikey=67
pitch_keycenter=65
lovel=84
hivel=127
volume=9


<region>
sample=Oboe_Stacc_F4_v3_rr1_Main.wav
lokey=76
hikey=79
pitch_keycenter=77
lovel=84
hivel=127
volume=9


<region>
sample=Oboe_Stacc_F5_v3_rr1_Main.wav
lokey=88
hikey=89
pitch_keycenter=89
lovel=84
hivel=127
volume=9


<group> //Begin Group 2




lorand=0.5 hirand=1.0


group_label=gr_2






<region>
sample=Oboe_Stacc_A#2_v1_rr2_Main.wav
lokey=58
hikey=59
pitch_keycenter=58
lovel=0
hivel=41
volume=17


<region>
sample=Oboe_Stacc_A#3_v1_rr2_Main.wav
lokey=68
hikey=71
pitch_keycenter=70
lovel=0
hivel=41
volume=17


<region>
sample=Oboe_Stacc_A#4_v1_rr2_Main.wav
lokey=80
hikey=83
pitch_keycenter=82
lovel=0
hivel=41
volume=17


<region>
sample=Oboe_Stacc_D3_v1_rr2_Main.wav
lokey=60
hikey=63
pitch_keycenter=62
lovel=0
hivel=41
volume=17


<region>
sample=Oboe_Stacc_D4_v1_rr2_Main.wav
lokey=72
hikey=75
pitch_keycenter=74
lovel=0
hivel=41
volume=17


<region>
sample=Oboe_Stacc_D5_v1_rr2_Main.wav
lokey=84
hikey=87
pitch_keycenter=86
lovel=0
hivel=62
volume=15


<region>
sample=Oboe_Stacc_F3_v1_rr2_Main.wav
lokey=64
hikey=67
pitch_keycenter=65
lovel=0
hivel=41
volume=17


<region>
sample=Oboe_Stacc_F4_v1_rr2_Main.wav
lokey=76
hikey=79
pitch_keycenter=77
lovel=0
hivel=41
volume=17


<region>
sample=Oboe_Stacc_F5_v1_rr2_Main.wav
lokey=88
hikey=89
pitch_keycenter=89
lovel=0
hivel=41
volume=17


<region>
sample=Oboe_Stacc_A#2_v2_rr2_Main.wav
lokey=58
hikey=59
pitch_keycenter=58
lovel=42
hivel=83
volume=10


<region>
sample=Oboe_Stacc_A#3_v2_rr2_Main.wav
lokey=68
hikey=71
pitch_keycenter=70
lovel=42
hivel=83
volume=10


<region>
sample=Oboe_Stacc_A#4_v2_rr2_Main.wav
lokey=80
hikey=83
pitch_keycenter=82
lovel=42
hivel=83
volume=10


<region>
sample=Oboe_Stacc_D3_v2_rr2_Main.wav
lokey=60
hikey=63
pitch_keycenter=62
lovel=42
hivel=83
volume=10


<region>
sample=Oboe_Stacc_D4_v2_rr2_Main.wav
lokey=72
hikey=75
pitch_keycenter=74
lovel=42
hivel=83
volume=10


<region>
sample=Oboe_Stacc_F3_v2_rr2_Main.wav
lokey=64
hikey=67
pitch_keycenter=65
lovel=42
hivel=83
volume=10


<region>
sample=Oboe_Stacc_F4_v2_rr2_Main.wav
lokey=76
hikey=79
pitch_keycenter=77
lovel=42
hivel=83
volume=10


<region>
sample=Oboe_Stacc_F5_v2_rr2_Main.wav
lokey=88
hikey=89
pitch_keycenter=89
lovel=42
hivel=83
volume=10


<region>
sample=Oboe_Stacc_A#2_v3_rr2_Main.wav
lokey=58
hikey=59
pitch_keycenter=58
lovel=84
hivel=127
volume=9


<region>
sample=Oboe_Stacc_A#3_v3_rr2_Main.wav
lokey=68
hikey=71
pitch_keycenter=70
lovel=84
hivel=127
volume=9


<region>
sample=Oboe_Stacc_A#4_v3_rr2_Main.wav
lokey=80
hikey=83
pitch_keycenter=82
lovel=84
hivel=127
volume=9


<region>
sample=Oboe_Stacc_D3_v3_rr2_Main.wav
lokey=60
hikey=63
pitch_keycenter=62
lovel=84
hivel=127
volume=9


<region>
sample=Oboe_Stacc_D4_v3_rr2_Main.wav
lokey=72
hikey=75
pitch_keycenter=74
lovel=84
hivel=127
volume=9


<region>
sample=Oboe_Stacc_D5_v3_rr1_Main.wav
lokey=84
hikey=87
pitch_keycenter=86
lovel=63
hivel=127
volume=9


<region>
sample=Oboe_Stacc_F3_v3_rr2_Main.wav
lokey=64
hikey=67
pitch_keycenter=65
lovel=84
hivel=127
volume=9


<region>
sample=Oboe_Stacc_F4_v3_rr2_Main.wav
lokey=76
hikey=79
pitch_keycenter=77
lovel=84
hivel=127
volume=9


<region>
sample=Oboe_Stacc_F5_v3_rr2_Main.wav
lokey=88
hikey=89
pitch_keycenter=89
lovel=84
hivel=127
volume=9


